:FULLY-SPECIFIED
:FORCE-ALL-JOINTS-BE-3DOF
:DEGREES
2141
root -2.36866 15.2668 -0.104309 -176.477 6.97465 -172.184
lfemur -53.4436 18.7931 -22.3853
ltibia 41.1935 -0 0
lfoot 10.7365 18.6675 -0.189133
ltoes 4.89666 -0 0
rfemur 3.15211 -2.47674 27.5376
rtibia 43.2133 -0 0
rfoot -21.1117 5.30469 -0.0360045
rtoes -30.007 0 0
lowerback 9.09614 1.2251 1.37551
upperback -2.30316 2.23029 3.5859
thorax -7.56165 1.17821 2.6867
lowerneck -5.61321 -1.52069 -5.96896
upperneck 7.82858 -1.83989 3.67731
head 3.61306 -0.943011 2.14439
lclavicle -2.85753e-15 1.39149e-15 0
lhumerus 49.5731 -5.9971 99.6965
lradius 19.4126 -0 0
lwrist -54.0324 0 0
lhand -34.8206 45.333 -0.0393048
lfingers 7.12502 -0 0
lthumb -7.97135 75.1527 -0.0370594
rclavicle -2.85753e-15 1.39149e-15 0
rhumerus -50.98 21.6557 -97.5746
rradius 108.454 -0 0
rwrist -88.4756 0 0
rhand -7.31269 -33.0839 0.261233
rfingers 7.12502 -0 0
rthumb 16.989 -56.768 3.52214
2142
root -2.34657 15.2709 -0.361235 -176.852 6.30732 -172.503
lfemur -52.3021 18.4528 -22.2242
ltibia 41.6721 -0 0
lfoot 9.76955 18.8092 -0.228808
ltoes 3.89218 -0 0
rfemur 1.72753 -2.33087 27.0536
rtibia 43.5472 -0 0
rfoot -20.1659 5.27707 -0.043555
rtoes -29.1146 0 0
lowerback 9.236 1.17122 1.06714
upperback -2.23942 2.1162 3.54422
thorax -7.56055 1.13098 2.8383
lowerneck -5.61176 -1.63484 -6.01003
upperneck 8.03572 -2.014 3.72741
head 3.68053 -1.03543 2.14821
lclavicle -2.85753e-15 1.39149e-15 0
lhumerus 48.7789 -6.88824 99.154
lradius 20.6165 -0 0
lwrist -52.5269 0 0
lhand -34.652 45.1607 -0.0475145
lfingers 7.12502 -0 0
lthumb -7.80857 74.9844 -0.0448
rclavicle -2.85753e-15 1.39149e-15 0
rhumerus -49.7013 21.5426 -96.7694
rradius 108.773 -0 0
rwrist -87.5924 0 0
rhand -5.48983 -32.9858 0.316672
rfingers 7.12502 -0 0
rthumb 18.4215 -55.1716 4.27659
2143
root -2.32449 15.2751 -0.618161 -177.253 5.58211 -172.843
lfemur -51.0691 18.0808 -22.0581
ltibia 42.1907 -0 0
lfoot 8.72199 18.9635 -0.269081
ltoes 2.80404 -0 0
rfemur 0.183126 -2.18648 26.5254
rtibia 43.909 -0 0
rfoot -19.1413 5.24701 -0.0512186
rtoes -28.1479 0 0
lowerback 9.38784 1.11371 0.732946
upperback -2.17028 1.99266 3.49893
thorax -7.5595 1.07981 3.00252
lowerneck -5.6101 -1.7585 -6.05453
upperneck 8.25998 -2.20281 3.78098
head 3.75363 -1.13556 2.15223
lclavicle -2.85753e-15 1.39149e-15 0
lhumerus 47.9264 -7.86188 98.5792
lradius 21.9207 -0 0
lwrist -50.8959 0 0
lhand -34.4694 44.974 -0.0558356
lfingers 7.12502 -0 0
lthumb -7.6322 74.802 -0.0526456
rclavicle -2.85753e-15 1.39149e-15 0
rhumerus -48.3195 21.4012 -95.9012
rradius 109.119 -0 0
rwrist -86.6356 0 0
rhand -3.51505 -32.8776 0.373174
rfingers 7.12502 -0 0
rthumb 19.9982 -53.4196 5.0483
2144
root -2.30241 15.2792 -0.875087 -177.676 4.80341 -173.2
lfemur -49.7537 17.679 -21.89
ltibia 42.7456 -0 0
lfoot 7.60077 19.1294 -0.30905
ltoes 1.63952 -0 0
rfemur -1.47093 -2.04778 25.9562
rtibia 44.2962 -0 0
rfoot -18.0448 5.2147 -0.0588233
rtoes -27.1134 0 0
lowerback 9.5507 1.05315 0.375132
upperback -2.09619 1.86051 3.4503
thorax -7.55854 1.02505 3.17826
lowerneck -5.60821 -1.89083 -6.10216
upperneck 8.49981 -2.40512 3.8375
head 3.83184 -1.24271 2.15639
lclavicle -2.85753e-15 1.39149e-15 0
lhumerus 47.0227 -8.9131 97.9788
lradius 23.3164 -0 0
lwrist -49.1505 0 0
lhand -34.2739 44.7741 -0.0640814
lfingers 7.12502 -0 0
lthumb -7.44344 74.6068 -0.0604201
rclavicle -2.85753e-15 1.39149e-15 0
rhumerus -46.8449 21.2283 -94.9773
rradius 109.489 -0 0
rwrist -85.6117 0 0
rhand -1.40151 -32.7598 0.429473
rfingers 7.12502 -0 0
rthumb 21.7131 -51.5194 5.82016
2145
root -2.28032 15.2833 -1.13201 -178.119 3.97568 -173.572
lfemur -48.3648 17.2495 -21.723
ltibia 43.3334 -0 0
lfoot 6.41289 19.3059 -0.34784
ltoes 0.405892 -0 0
rfemur -3.22442 -1.91883 25.349
rtibia 44.7064 -0 0
rfoot -16.8832 5.18032 -0.0662032
rtoes -26.0175 0 0
lowerback 9.72363 0.990097 -0.00409452
upperback -2.01758 1.72059 3.39861
thorax -7.55771 0.967033 3.36443
lowerneck -5.60609 -2.03102 -6.15262
upperneck 8.7537 -2.61968 3.89646
head 3.9147 -1.35624 2.16064
lclavicle -2.85753e-15 1.39149e-15 0
lhumerus 46.0745 -10.0367 97.3592
lradius 24.7949 -0 0
lwrist -47.3015 0 0
lhand -34.0667 44.5624 -0.0720724
lfingers 7.12502 -0 0
lthumb -7.24344 74.4 -0.0679544
rclavicle -2.85753e-15 1.39149e-15 0
rhumerus -45.2883 21.0212 -94.0054
rradius 109.881 -0 0
rwrist -84.527 0 0
rhand 0.837584 -32.6327 0.484328
rfingers 7.12502 -0 0
rthumb 23.5594 -49.4791 6.57517
2146
root -2.25824 15.2875 -1.38894 -178.578 3.10341 -173.955
lfemur -46.9111 16.7944 -21.5598
ltibia 43.9507 -0 0
lfoot 5.16535 19.4921 -0.384626
ltoes -0.889567 0 0
rfemur -5.06703 -1.80348 24.7076
rtibia 45.1371 -0 0
rfoot -15.6633 5.14406 -0.0732011
rtoes -24.8667 0 0
lowerback 9.90567 0.925121 -0.402525
upperback -1.93491 1.57373 3.34411
thorax -7.55704 0.906108 3.55992
lowerneck -5.60373 -2.17823 -6.20562
upperneck 9.02012 -2.84527 3.95736
head 4.0017 -1.47546 2.16493
lclavicle -2.85753e-15 1.39149e-15 0
lhumerus 45.0885 -11.2273 96.7265
lradius 26.3476 -0 0
lwrist -45.3598 0 0
lhand -33.8492 44.34 -0.0796399
lfingers 7.12502 -0 0
lthumb -7.03339 74.1829 -0.0750892
rclavicle -2.85753e-15 1.39149e-15 0
rhumerus -43.6605 20.7773 -92.9932
rradius 110.292 -0 0
rwrist -83.3879 0 0
rhand 3.18905 -32.4971 0.536543
rfingers 7.12502 -0 0
rthumb 25.5292 -47.308 7.29666
2147
root -2.23616 15.2916 -1.64587 -179.05 2.19121 -174.347
lfemur -45.4013 16.3162 -21.4029
ltibia 44.5941 -0 0
lfoot 3.86513 19.687 -0.418637
ltoes -2.23959 0 0
rfemur -6.98838 -1.70528 24.0356
rtibia 45.586 -0 0
rfoot -14.3921 5.10612 -0.0796705
rtoes -23.6674 0 0
lowerback 10.0959 0.858758 -0.817945
upperback -1.84861 1.42076 3.2871
thorax -7.55656 0.842614 3.76364
lowerneck -5.60112 -2.33163 -6.26087
upperneck 9.29757 -3.08066 4.01972
head 4.09236 -1.5997 2.1692
lclavicle -2.85753e-15 1.39149e-15 0
lhumerus 44.0707 -12.4792 96.0867
lradius 27.9656 -0 0
lwrist -43.3364 0 0
lhand -33.6224 44.1082 -0.0866274
lfingers 7.12502 -0 0
lthumb -6.81447 73.9565 -0.0816773
rclavicle -2.85753e-15 1.39149e-15 0
rhumerus -41.9722 20.4947 -91.9486
rradius 110.721 -0 0
rwrist -82.2009 0 0
rhand 5.6397 -32.3537 0.58499
rfingers 7.12502 -0 0
rthumb 27.6131 -45.0164 7.96863
2148
root -2.21408 15.2957 -1.90279 -179.532 1.24371 -174.744
lfemur -43.8439 15.8172 -21.2548
ltibia 45.2599 -0 0
lfoot 2.51926 19.8894 -0.449174
ltoes -3.63689 0 0
rfemur -8.978 -1.62741 23.3371
rtibia 46.0506 -0 0
rfoot -13.0764 5.06672 -0.0854785
rtoes -22.4261 0 0
lowerback 10.2932 0.791524 -1.24814
upperback -1.75913 1.26253 3.22786
thorax -7.5563 0.776895 3.9745
lowerneck -5.59827 -2.49041 -6.31807
upperneck 9.58453 -3.32462 4.08307
head 4.1862 -1.72831 2.17342
lclavicle -2.85753e-15 1.39149e-15 0
lhumerus 43.027 -13.7864 95.4452
lradius 29.6403 -0 0
lwrist -41.242 0 0
lhand -33.3877 43.8683 -0.0928935
lfingers 7.12502 -0 0
lthumb -6.58785 73.7222 -0.0875851
rclavicle -2.85753e-15 1.39149e-15 0
rhumerus -40.2342 20.1722 -90.8792
rradius 111.165 -0 0
rwrist -80.9723 0 0
rhand 8.17633 -32.2031 0.628625
rfingers 7.12502 -0 0
rthumb 29.8003 -42.6164 8.57605
2149
root -2.19199 15.2999 -2.15972 179.98 0.265661 -175.145
lfemur -42.2473 15.3 -21.1176
ltibia 45.9448 -0 0
lfoot 1.13474 20.0984 -0.475614
ltoes -5.0742 0 0
rfemur -11.0254 -1.57267 22.6161
rtibia 46.5285 -0 0
rfoot -11.7229 5.02605 -0.0905071
rtoes -21.1492 0 0
lowerback 10.4967 0.723914 -1.69088
upperback -1.66692 1.09987 3.16666
thorax -7.55628 0.709293 4.19138
lowerneck -5.59517 -2.65373 -6.37692
upperneck 9.8795 -3.57588 4.14698
head 4.28272 -1.8606 2.17753
lclavicle -2.85753e-15 1.39149e-15 0
lhumerus 41.9628 -15.1426 94.8073
lradius 31.363 -0 0
lwrist -39.0877 0 0
lhand -33.1463 43.6214 -0.0983134
lfingers 7.12502 -0 0
lthumb -6.35472 73.4812 -0.0926952
rclavicle -2.85753e-15 1.39149e-15 0
rhumerus -38.4574 19.8089 -89.793
rradius 111.622 -0 0
rwrist -79.7085 0 0
rhand 10.7857 -32.0464 0.666513
rfingers 7.12502 -0 0
rthumb 32.0785 -40.1213 9.1052
2150
root -2.16991 15.304 -2.41664 179.487 -0.738131 -175.545
lfemur -40.6196 14.7676 -20.9931
ltibia 46.6453 -0 0
lfoot -0.2814 20.3127 -0.497427
ltoes -6.54425 0 0
rfemur -13.1199 -1.54335 21.8773
rtibia 47.0172 -0 0
rfoot -10.3387 4.98435 -0.0946552
rtoes -19.8433 0 0
lowerback 10.7054 0.656393 -2.14395
upperback -1.57244 0.933604 3.10381
thorax -7.55653 0.640153 4.41321
lowerneck -5.59183 -2.82077 -6.43713
upperneck 10.181 -3.8332 4.21102
head 4.38143 -1.99592 2.18151
lclavicle -2.85753e-15 1.39149e-15 0
lhumerus 40.8833 -16.5413 94.1776
lradius 33.1249 -0 0
lwrist -36.8844 0 0
lhand -32.8993 43.369 -0.102781
lfingers 7.12502 -0 0
lthumb -6.11627 73.2346 -0.096907
rclavicle -2.85753e-15 1.39149e-15 0
rhumerus -36.6523 19.4048 -88.6976
rradius 112.089 -0 0
rwrist -78.4159 0 0
rhand 13.4546 -31.8845 0.697844
rfingers 7.12502 -0 0
rthumb 34.4336 -37.5458 9.54401
2151
root -2.14783 15.3082 -2.67357 178.993 -1.76278 -175.945
lfemur -38.969 14.2226 -20.8828
ltibia 47.358 -0 0
lfoot -1.72215 20.5312 -0.514176
ltoes -8.03975 0 0
rfemur -15.2508 -1.54124 21.125
rtibia 47.5145 -0 0
rfoot -8.93046 4.94184 -0.0978403
rtoes -18.5147 0 0
lowerback 10.9182 0.589398 -2.6051
upperback -1.47614 0.764566 3.03958
thorax -7.55706 0.569816 4.63887
lowerneck -5.58824 -2.99069 -6.4984
upperneck 10.4875 -4.09533 4.2748
head 4.48185 -2.13358 2.18532
lclavicle -2.85753e-15 1.39149e-15 0
lhumerus 39.7932 -17.9756 93.5606
lradius 34.9173 -0 0
lwrist -34.6429 0 0
lhand -32.648 43.1121 -0.106208
lfingers 7.12502 -0 0
lthumb -5.87366 72.9838 -0.100139
rclavicle -2.85753e-15 1.39149e-15 0
rhumerus -34.8294 18.9608 -87.6005
rradius 112.564 -0 0
rwrist -77.101 0 0
rhand 16.1699 -31.7185 0.721946
rfingers 7.12502 -0 0
rthumb 36.8504 -34.9061 9.88239
2152
root -2.12574 15.3123 -2.9305 178.5 -2.80333 -176.34
lfemur -37.3034 13.6681 -20.7879
ltibia 48.0793 -0 0
lfoot -3.18048 20.7527 -0.525529
ltoes -9.55345 0 0
rfemur -17.4075 -1.56759 20.3641
rtibia 48.0178 -0 0
rfoot -7.50511 4.89874 -0.0999991
rtoes -17.17 0 0
lowerback 11.1341 0.523335 -3.07211
upperback -1.37848 0.593581 2.97429
thorax -7.55788 0.498627 4.86728
lowerneck -5.58443 -3.16268 -6.56043
upperneck 10.7975 -4.36098 4.33794
head 4.5835 -2.27293 2.18893
lclavicle -2.85753e-15 1.39149e-15 0
lhumerus 38.6972 -19.4384 92.9604
lradius 36.7315 -0 0
lwrist -32.3741 0 0
lhand -32.3936 42.8521 -0.108531
lfingers 7.12502 -0 0
lthumb -5.6281 72.7299 -0.102328
rclavicle -2.85753e-15 1.39149e-15 0
rhumerus -32.9988 18.4781 -86.5088
rradius 113.045 -0 0
rwrist -75.77 0 0
rhand 18.9182 -31.5495 0.738307
rfingers 7.12502 -0 0
rthumb 39.3122 -32.2196 10.1125
2153
root -2.10366 15.3164 -3.18742 178.011 -3.85475 -176.729
lfemur -35.6307 13.1071 -20.7093
ltibia 48.8058 -0 0
lfoot -4.64935 20.976 -0.531262
ltoes -11.0781 0 0
rfemur -19.5793 -1.62303 19.5992
rtibia 48.5247 -0 0
rfoot -6.06948 4.8553 -0.101089
rtoes -15.8156 0 0
lowerback 11.3522 0.458578 -3.54273
upperback -1.27992 0.421477 2.90824
thorax -7.55899 0.426929 5.09733
lowerneck -5.5804 -3.33591 -6.62294
upperneck 11.1096 -4.62888 4.4001
head 4.68588 -2.41329 2.19232
lclavicle -2.85753e-15 1.39149e-15 0
lhumerus 37.5994 -20.9225 92.3804
lradius 38.5588 -0 0
lwrist -30.089 0 0
lhand -32.1375 42.5903 -0.109703
lfingers 7.12502 -0 0
lthumb -5.38075 72.4742 -0.103434
rclavicle -2.85753e-15 1.39149e-15 0
rhumerus -31.1704 17.959 -85.4294
rradius 113.529 -0 0
rwrist -74.4295 0 0
rhand 21.6864 -31.3787 0.746575
rfingers 7.12502 -0 0
rthumb 41.8014 -29.5047 10.2289
